# xmcd
#
# Track frame offsets:
#	183
#	10778
#	20895
#	29885
#	41158
#	53763
#	62778
#	72610
#	84915
#	98503
#	112755
#	126148
#	138525
#	152480
#
# Disc length: 2194 seconds
#
# Revision: 2
# Processed by: cddbd v1.4b41PL3 Copyright (c) Steve Scherf et al.
# Submitted via: EZCDDA 4.3.2
#
DISCID=bb08900e
DTITLE=Jackie Wilson - The Great - Disk 2
DYEAR=1900
DGENRE=
TTITLE0=We have love
TTITLE1=Talk that talk
TTITLE2=You better know it
TTITLE3=Passin' through
TTITLE4=My empty arms
TTITLE5=Please tell me why
TTITLE6=The way I am
TTITLE7=My heart belongs to only you
TTITLE8=I just can't help it
TTITLE9=Forever and a day
TTITLE10=Baby workout
TTITLE11=Chain gang
TTITLE12=For once in my life (with Count Basie)
TTITLE13=You got me walking (with Count Basie)
EXTD=
EXTT0=
EXTT1=
EXTT2=
EXTT3=
EXTT4=
EXTT5=
EXTT6=
EXTT7=
EXTT8=
EXTT9=
EXTT10=
EXTT11=
EXTT12=
EXTT13=
PLAYORDER=
